<?xml version="1.0" encoding="utf-8"?>
<!-- Generator: Adobe Illustrator 17.0.0, SVG Export Plug-In . SVG Version: 6.00 Build 0)  -->
<!DOCTYPE svg PUBLIC "-//W3C//DTD SVG 1.1//EN" "http://www.w3.org/Graphics/SVG/1.1/DTD/svg11.dtd">
<svg version="1.1" id="Camada_1" xmlns="http://www.w3.org/2000/svg" xmlns:xlink="http://www.w3.org/1999/xlink" x="0px" y="0px"
	 width="595.28px" height="841.89px" viewBox="0 0 595.28 841.89" enable-background="new 0 0 595.28 841.89" xml:space="preserve">
<g>
	<circle fill="#FFFFFF" cx="303.705" cy="397.987" r="233"/>
	<g>
		<g>
			<g>
				<path d="M539.137,396.258c0.072,2.183,0.465,1.4,0.56,1.728C539.402,394.327,539.035,396.353,539.137,396.258z"/>
				<polygon points="535.394,360.483 535.688,361.081 534.362,355.932 				"/>
				<path d="M528.303,327.606c-0.226,3.389,3.48,11.699,4.203,17.706l-0.003,1.013l1.295,2.485
					c-0.418-1.775-0.868-3.683-1.326-5.625c-0.485-1.935-0.911-3.919-1.512-5.788C529.836,333.639,528.855,330.125,528.303,327.606z
					"/>
				<path d="M525.096,309.554c-0.089,1.244-1.696-3.557,1.258,4.063c-0.087-0.406-0.097-0.529-0.14-0.769
					C525.966,312.156,525.632,311.198,525.096,309.554z"/>
				<path d="M526.215,312.848C527.429,316.233,525.819,310.482,526.215,312.848L526.215,312.848z"/>
				<path d="M520.062,297.425l2.219,4.201c-0.088-1.042-1.599-5.009-0.803-3.644C519.422,293.549,519.492,294.64,520.062,297.425z"
					/>
				<path d="M517.361,293.745c0,0,0.309,0.53,0.618,1.06c0.284,0.542,0.568,1.085,0.568,1.085
					C518.504,295.436,518.318,294.804,517.361,293.745z"/>
				<path d="M520.921,300.516l-2.374-4.626c0.055,0.733-0.324,0.987,1.055,2.139C519.065,297.81,519.82,298.588,520.921,300.516z"/>
				<path d="M521.852,303.32c0.38,1.28,0.842,2.73,0.895,3.351c0.055,0.62-0.136,0.341-1.24-1.754
					c1.712,4.16,2.546,5.895,2.659,5.493c0.047-0.197-0.106-0.922-0.469-2.128C523.328,307.078,522.79,305.376,521.852,303.32z"/>
				<path d="M526.675,326.322c0,0,0.195,0.853,0.389,1.705c0.191,0.853,0.329,1.721,0.329,1.721l1.148,2.805
					c-0.284-0.702-0.66-2.343-0.995-3.773C527.186,327.358,526.799,326.168,526.675,326.322z"/>
				<path d="M507.652,270.453c-0.452-0.067,0.003,1.889-0.199,2.427c0,0,0.55,0.691,1.048,1.415
					c0.496,0.726,0.992,1.452,0.992,1.452C508.899,274.001,507.315,270.95,507.652,270.453z"/>
				<path d="M507.453,272.88l-3.19-4.188C506.595,272.753,507.274,273.336,507.453,272.88z"/>
				<path d="M515.563,293.693c0,0,1.219,1.772,2.257,3.642c1.071,1.858,2.141,3.715,2.141,3.715s-1.234-2.235-2.469-4.47
					c-0.597-1.125-1.304-2.194-1.809-3.007c-0.511-0.81-0.852-1.349-0.852-1.349L515.563,293.693z"/>
				<path d="M497.061,253.217c0,0,0.161,0.114,0.382,0.301c0.222,0.186,0.518,0.435,0.814,0.683
					c0.591,0.501,1.181,1.001,1.181,1.001s-1.004-0.926-2.007-1.852c-1.057-0.878-2.115-1.755-2.115-1.755L497.061,253.217z"/>
				<path d="M489.024,242.435c2.007,1.237-0.826-3.315,1.018-1.776c-2.382-2.812-4.824-4.858-7.123-6.574
					C485.11,236.139,486.974,238.779,489.024,242.435z"/>
				<path d="M479.096,231.185c1.132,0.982,2.428,1.889,3.823,2.9C481.73,233.016,480.488,232.033,479.096,231.185z"/>
				<path d="M499.691,261.004c-0.035-0.472,0.032-1.472-1.374-4.108l0.248,2.372C498.908,259.797,499.297,260.396,499.691,261.004z"
					/>
				<path d="M498.577,259.348l-0.012-0.081c-1.211-1.892-2.052-3.204-2.412-3.766C496.459,255.987,497.189,257.145,498.577,259.348z
					"/>
				<path d="M499.974,261.441c-0.104-0.161-0.18-0.279-0.283-0.437C499.714,261.23,499.751,261.35,499.974,261.441z"/>
				<path d="M510.168,281.139c-1.908-2.448-5.487-7.687-3.222-1.899C508.565,280.826,507.278,277.494,510.168,281.139z"/>
				<path d="M500.293,264.325c0,0,0.18,0.296,0.451,0.74c0.251,0.457,0.585,1.066,0.919,1.676c0.667,1.217,1.335,2.435,1.335,2.435
					c0.17-0.238-0.013-1.315,1.006-0.162c0,0-0.917-1.182-1.834-2.363c-0.46-0.588-0.92-1.176-1.265-1.617
					C500.537,264.609,500.293,264.325,500.293,264.325z"/>
				<polygon points="498.502,262.266 500.293,264.325 499.223,262.566 				"/>
				<path d="M484.442,239.353c-0.962-0.767-1.868-1.655-2.778-2.635c-0.936-0.956-1.911-1.972-2.933-3.062
					c0.96,1.295,2.016,2.534,2.984,3.84c0.974,1.301,1.965,2.572,2.955,3.789C485.24,241.374,486.629,242.007,484.442,239.353z"/>
				<path d="M491.484,248.976c-0.115-0.122-0.262-0.278-0.369-0.392C491.232,248.912,491.364,249.145,491.484,248.976z"/>
				<path d="M458.046,212.642c0.069,0.175,0.108,0.349,0.176,0.529c0.083-0.041,0.154-0.087,0.245-0.12L458.046,212.642z"/>
				<path d="M484.835,241.85c1.335,2.014,2.465,2.928,3.609,3.758c-1.221-1.319-2.479-2.745-3.774-4.324
					C484.413,241.244,484.303,241.291,484.835,241.85z"/>
				<path d="M473.133,225.453c0.339,0.556,0.715,1.132,1.117,1.723c0.389,0.603,0.794,1.232,1.209,1.876
					c-0.264-0.602-0.674-1.514-1.131-2.244C473.87,226.081,473.411,225.489,473.133,225.453z"/>
				<path d="M490.889,247.726c0.086,0.086,0.166,0.16,0.253,0.259C490.873,247.188,490.835,247.344,490.889,247.726z"/>
				<path d="M490.889,247.726c-0.863-0.896-1.661-1.5-2.445-2.117c0.943,1.115,1.841,2.133,2.671,2.975
					C491.004,248.292,490.925,247.971,490.889,247.726z"/>
				<path d="M445.215,214.607c0.596-0.439,2.303,0.03,4.267,1.185c0.977,0.582,2.037,1.31,3.019,2.211
					c0.961,0.925,1.878,1.982,2.644,3.124c4.601,2.645,4.919-2.785,3.077-7.956c-0.526,0.373-0.794,0.67-5.57-2.186
					c1.104,1.751,8.03,9.369,3.805,7.217c-2.893-2.154-3.989-3.134-4.586-4.009c-0.597-0.875-0.719-1.603-1.853-3.011
					c0.616,1.635-1.564,0.679-3.941-0.254c-2.346-0.983-5.045-1.72-5.19-0.21c0,0,0.352,0.177,0.88,0.442
					c0.531,0.262,1.235,0.618,1.91,1.017c1.366,0.779,2.732,1.558,2.732,1.558C446.252,214.124,444.08,213.254,445.215,214.607z"/>
				<path d="M465.855,220.491l1.707,1.512c-0.843-1.002-1.468-1.97-2.171-3.014c-0.699-1.049-1.408-2.247-2.321-3.828
					c-3.214-2.135-4.12-2.277-4.603-2.109c0,0,2.031,1.953,4.061,3.907c1.013,0.975,2.026,1.95,2.786,2.681
					c0.745,0.746,1.22,1.267,1.22,1.267L465.855,220.491z"/>
				<path d="M474.663,229.372c-0.536-0.096-1.181-0.405-1.854-0.733c-0.685-0.316-1.378-0.669-1.963-0.904
					c-1.169-0.471-1.9-0.461-1.243,1.229c0.593,0.571,1.102,1.038,1.544,1.423c0.43,0.397,0.784,0.72,1.1,0.973
					c0.627,0.51,1.072,0.768,1.471,0.955c0.798,0.375,1.415,0.464,2.948,1.74c-7.413-7.735,2.59,1.796-2.057-4.514
					c1.572,1.424,2.886,2.806,4.121,4.114c-1.175-1.56-2.275-3.102-3.272-4.603c0.042,0.097,0.071,0.165,0.105,0.244l0.037,0.035
					c-0.006,0.006-0.016,0.001-0.022,0.007c0.19,0.466,0.22,0.651-0.059,0.19c-0.035-0.015-0.127-0.11-0.169-0.15
					c-0.181,0.075-0.429,0.039-0.683-0.012c-1.882-2.533-0.08-0.615,0.683,0.012c0.07-0.019,0.172,0.001,0.228-0.04
					c-0.002-0.013-0.008-0.027-0.015-0.042c0,0-0.481-0.476-1.204-1.189c-0.72-0.716-1.754-1.595-2.756-2.505
					c-2.022-1.8-4.043-3.599-4.043-3.599c0.735,0.89,1.61,1.839,2.759,3.004c0.58,0.577,1.222,1.215,1.944,1.932
					C473,227.643,473.806,228.436,474.663,229.372z"/>
				<path d="M502.294,275.478c-0.1-0.321-0.031-0.347,0.017-0.406C501.842,274.564,501.632,274.392,502.294,275.478z"/>
				<path d="M500.493,271.502c0.531,0.569,1.214,0.891,2.452,3.056c0.896,1.986-0.413,0.243-0.633,0.514
					c1.047,1.106,3.35,4.108,1.315-0.172l-0.512-0.561c-1.97-3.763-3.76-9.172-3.245-8.626
					C499.734,267.311,499.75,268.624,500.493,271.502z"/>
				<path d="M488.073,250.058c0,0-0.363-0.418-0.907-1.046c-0.542-0.629-1.261-1.47-2.044-2.257c-1.535-1.596-3.07-3.193-3.07-3.193
					l2.091,4.116l0.336-0.577c0.774,0.987,1.305,1.68,1.708,2.142c0.408,0.459,0.691,0.685,0.908,0.789
					C487.53,250.241,487.7,249.957,488.073,250.058z"/>
				<path d="M457.762,211.364l1.886-0.384c0,0-1.295-0.504-2.663-0.902c-1.352-0.41-2.703-0.819-2.703-0.819
					s0.871,0.523,1.743,1.046c0.436,0.263,0.871,0.526,1.198,0.724C457.552,211.223,457.762,211.364,457.762,211.364z"/>
				<path d="M448.663,203.872l1.199-0.872c0,0-0.182-0.083-0.455-0.208c-0.28-0.115-0.654-0.267-1.027-0.42
					c-0.747-0.302-1.494-0.604-1.494-0.604L448.663,203.872z"/>
				<path d="M122.285,505.384l2.025,1.483C123.495,506.085,122.86,505.643,122.285,505.384z"/>
				<path d="M114.678,490.429l-1.833,0.437C114.106,491.121,114.913,491.073,114.678,490.429z"/>
				<path d="M170.652,182.96c-5.003-0.427-11.585-1.899-9.162,0.837l3.008,2.268C166.59,184.075,168.681,183.277,170.652,182.96z"/>
				<path d="M76.163,352.329c0.459-0.267,0.937-0.546,1.41-0.822c-1.176-1.173-2.282-2.277-3.27-3.262
					C74.89,349.492,75.437,350.87,76.163,352.329z"/>
				<path d="M92.388,358.047l-3.387,4.044C90.091,361.224,91.213,359.924,92.388,358.047z"/>
				<path d="M185.746,570.087c0,0,1.065-0.377,2.129-0.754c1.069-0.404,2.137-0.808,2.137-0.808
					C186.674,566.114,187.07,568.731,185.746,570.087z"/>
				<path d="M338.749,154.296c-3.23-1.49-5.882-2.349-8.238-2.863C334.451,153.534,337.397,156.109,338.749,154.296z"/>
				<path d="M81.309,520.442c1.507,1.121,2.593,1.339,3.355,0.852C83.181,520.13,81.998,519.646,81.309,520.442z"/>
				<path d="M320.667,150.213c0.585,0.323,1.166,0.519,1.761,0.802c1.261-0.067,2.527-0.111,3.856-0.072
					c1.328,0.048,2.725,0.127,4.227,0.49c-1.448-0.812-3.043-1.389-4.707-1.683C324.139,149.468,322.4,149.529,320.667,150.213z"/>
				<path d="M490.867,524.238c0.2-0.178,0.397-0.421,0.588-0.576C491.357,523.502,491.148,523.793,490.867,524.238z"/>
				<path d="M537.266,429.399c-0.072,1.067-0.25,2.8-0.41,4.437C536.982,433.047,537.114,431.708,537.266,429.399z"/>
				<path d="M409.308,176.883C411.594,177.967,409.764,176.861,409.308,176.883L409.308,176.883z"/>
				<path d="M416.582,189.271c-0.557-0.065-1.03-0.019-1.284,0.325C415.684,189.301,416.117,189.215,416.582,189.271z"/>
				<path d="M295.699,165.592c-0.071-0.001-0.127-0.002-0.208-0.004C296.222,166.099,296.096,166.001,295.699,165.592z"/>
				<path d="M412.257,179.499c-0.723-0.67-1.587-1.387-2.57-2.088C410.083,177.792,410.857,178.448,412.257,179.499z"/>
				<path d="M412.208,178.449c0.727,0.494,1.298,0.883,1.843,1.253C414.469,179.582,414.312,179.266,412.208,178.449z"/>
				<path d="M406.118,175.386c1.305,0.625,2.472,1.317,3.57,2.025c-0.387-0.34-0.527-0.531-0.38-0.529
					C408.637,176.568,407.689,176.123,406.118,175.386z"/>
				<path d="M333.222,620.802c0.164,0.069,0.347,0.105,0.529,0.202C335.928,619.656,334.931,619.937,333.222,620.802z"/>
				<path d="M145.731,251.401c0.043-0.103,0.008-0.21,0.038-0.311c-0.098,0.051-0.224,0.113-0.319,0.153L145.731,251.401z"/>
				<path d="M142.673,259.318c-1.395-5.665,0.282-6.887,2.778-8.074c0,0-2.448-1.345-4.896-2.69
					c-2.469-1.32-4.937-2.639-4.937-2.639s1.689,3.405,3.456,6.754C140.834,256.022,142.673,259.318,142.673,259.318z"/>
				<path d="M146.367,537.484c0,0-0.208-1.631-0.415-3.263c-0.191-1.615-0.382-3.229-0.382-3.229c4.31,0.61,6.747,2.085,8.217,2.552
					c1.499,0.44,1.932-0.117,2.258-3.671c-2.407,1.913-4.485,1.927-6.421,0.98c-1.924-0.955-3.761-2.802-5.386-4.816
					c-1.674-1.977-3.351-3.946-5.274-5c-1.839-1.114-3.966-1.308-6.614,0.361l0.107-4.492c0.483,0.915,1.18,0.625,1.65,1.531
					c0.513-4.6-2.117-4.28-5.243-4.079c-3.144,0.242-6.938,0.471-8.645-3.937c-0.841-3.279-0.262-6.168,2.067-5.037l-6.202-4.626
					c-0.414-0.959-0.032-1.61,0.509-1.76c0.532-0.145,1.275,0.176,1.673,1.125c0,0-0.398-0.55-0.956-1.398
					c-0.535-0.862-1.249-2.011-1.963-3.16c-1.438-2.303-2.876-4.607-2.876-4.607l0.374-0.093c-1.271-0.237-2.917-0.85-4.522-1.535
					c-1.603-0.684-3.157-1.443-4.118-1.976c0.531-3.322,1.817,0.734,2.979-0.585c0,0-1.331-1.078-2.663-2.156
					c-0.671-0.547-1.341-1.094-1.844-1.504c-0.495-0.417-0.805-0.705-0.805-0.705c1.085-1.813,2.831-1.821,4.439-0.914
					c1.671,0.886,3.222,2.683,3.845,4.673c4.7-5.193,3.499-5.89,1.332-7.179c-1.038-0.654-2.307-1.442-3.156-2.946
					c-0.829-1.505-1.315-3.709-0.543-7.139c0,0,0.206,0.293,0.514,0.734c0.331,0.43,0.772,1.003,1.212,1.577
					c0.876,1.139,1.752,2.279,1.752,2.279c1.38-1.494,2.174-2.784,2.618-3.998c0.444-1.214,0.521-2.345,0.588-3.555
					c0.094-2.396-0.25-4.988,0.982-8.496c-0.92,1.02-2.705,4.741-4.863,7.743c-2.16,2.984-4.664,5.209-7.195,2.655
					c0.36-2.072,0.01-4.431-3.531-7.009c4.378-1.393,2.409-4.298,1.01-8.314l5.963-1.308c-0.718-0.957-1.464-1.604-2.174-2.08
					c-0.701-0.479-1.421-0.772-2.159-1.005c-1.477-0.467-3.025-0.686-4.662-1.695c-0.555-5.166,3.814-7.131,7.563-9.048
					c-0.198-3.959-1.834-2.295-3.75-0.71c-1.919,1.579-4.111,3.103-5.524-1.585c0.277-1.782,0.28-3.374,0.046-4.886
					c-0.172-1.522-0.543-2.97-1.13-4.441c-1.149-2.944-3.183-5.977-5.246-9.985c1.726-4.991,3.792,0.547,5.403-1.318
					c0,0-1.298-0.966-2.596-1.932c-1.3-0.99-2.601-1.981-2.601-1.981c0.033-1.058,1.556-0.797,2.324-0.67
					c-1.094-1.737-2.544-1.752-4.072-2.017c-1.505-0.271-2.987-0.803-3.892-3.704c-1.692-0.346-1.943-1.302-1.491-2.631
					c0.226-0.664,0.628-1.42,1.113-2.239c0.25-0.408,0.51-0.833,0.779-1.272c0.293-0.436,0.596-0.885,0.906-1.346
					c1.218-1.837,2.404-3.811,2.818-5.78c0.43-1.971,0.006-3.945-1.716-5.838c1.856-1.645,3.665,1.064,6.059,0.66
					c-2.145-4.922-2.9-7.113-3.885-9.081c-0.962-1.988-2.028-3.735-4.872-8.248c0,0,1.198-1.592,2.395-3.184
					c0.575-0.792,1.261-1.559,1.727-2.139c0.479-0.576,0.798-0.96,0.798-0.96c-2.679,2.121-5.084,1.435-7.215-0.687
					c-2.132-2.114-3.991-5.669-5.623-9.075c-2.484,1.453-4.668,2.743-5.767,3.685c0,0-0.359-2.58-0.719-5.159
					c-0.206-1.303-0.264-2.585-0.366-3.561c-0.085-0.975-0.142-1.624-0.142-1.624c1.24-0.959,3.03,0.489,5.135,2.575
					c-0.337-0.752-0.676-1.474-1.009-2.055c2.964-2.921,5.929-0.311,8.687,2.755c-1.416,0.863-2.921,1.717-4.408,2.561
					c3.181,3.074,6.817,5.909,10.381,6.086c-0.584-0.71-0.978-1.951-1.091-3.262c0.875,0.779,1.686,1.318,2.325,1.168
					c0.696-0.177-0.523-1.375-1.67-3.147c0,0,1.76-0.154,3.52-0.309c1.756-0.139,3.511-0.278,3.511-0.278l-2.5-1.058
					c0,0,1.66-2.615,3.32-5.231c0.787-1.305,1.747-2.552,2.395-3.499c0.666-0.94,1.109-1.567,1.109-1.567
					c-1.072-2.444-2.355-4.931-3.61-7.514c-1.168-2.556-2.337-5.216-3.315-8.043c-0.489-1.413-0.932-2.868-1.303-4.37
					c-0.353-1.496-0.558-3.011-0.706-4.594c-0.138-1.579-0.178-3.21-0.098-4.896c0.081-1.686,0.258-3.439,0.714-5.191
					c2.993,5.121,6.958,3.78,12.131,6.234c-3.537,0.487-3.844,3.264-3.785,6.538c0.052,1.649,0.156,3.412,0.133,5.174
					c-0.003,1.771-0.242,3.499-1.081,5.045c1.743-3.231,4.084-1.546,4.716-0.38c0,0-0.093-0.837-0.234-2.092
					c-0.068-0.632-0.148-1.369-0.233-2.159c-0.048-0.783-0.099-1.619-0.15-2.455c-0.182-3.393-0.364-6.787-0.364-6.787
					c2.121,1.023,3.168,0.746,4.045-0.058c0.884-0.801,1.704-2.099,3.214-3.163c-4.716-0.76-5.199-3.479-4.534-6.802
					c0.168-0.827,0.393-1.695,0.658-2.565c0.299-0.856,0.605-1.729,0.903-2.58c0.578-1.715,1.042-3.39,0.997-4.867
					c2.856,1.154,5.103,3.696,1.719,8.827c4.61-1.493,3.124-4.593,1.622-7.884c-1.568-3.288-2.965-6.659,1.232-8.185
					c-0.685,1.37-1.504,1.86-0.441,3.143c-0.316-2.21,1.089-4.98,2.705-6.775c1.636-1.79,3.586-2.521,4.152-0.973l-0.744,1.309
					c1.556-1.983,3.336-4.581,5.049-7.46c1.77-2.842,3.629-5.861,5.054-8.896c0.692-1.533,1.446-2.945,1.995-4.366
					c0.566-1.408,1.002-2.769,1.267-4.043c0.522-2.553,0.383-4.747-0.777-6.218c0.793,0.543,6.051,6.766,6.893,8.203
					c0,0-0.137-0.47-0.377-1.293c-0.234-0.821-0.532-1.97-0.892-3.372c-0.717-2.798-1.617-6.572-2.424-10.415
					c-0.846-3.87-1.457-7.68-1.886-10.578c-0.431-2.898-0.677-4.856-0.677-4.856c1.672,2.801,6.358,5.613,10.117,8.874
					c3.77,3.253,6.67,6.925,5.214,11.164c1.126-0.562,2.364-1.197,3.536-2.34c1.181-1.138,2.24-2.832,3.269-5.339
					c-1.745,0.467-9.29-3.53-8.074-5.548c4.711,0.285,6.088,0.22,7.537-0.081c0.72-0.148,1.448-0.35,2.58-0.576
					c1.131-0.223,2.647-0.495,5.025-0.632c-1.334,0.315-3.144-1.767-4.194-4.241c-1.055-2.472-1.317-5.353,0.293-6.562
					c0.479,1.5,6.428,6.987,6.045,8.685c0,0,0.207-3.38,0.522-6.813c0.145-1.726,0.395-3.361,0.555-4.636
					c0.177-1.264,0.294-2.107,0.294-2.107c-0.882,2.862,4.645,6.443,7.877,7.176c-0.944-0.405,0.671-1.678,2.688-3.146
					c2.052-1.423,4.574-2.932,5.317-4.077l-4.489,0.698c4.759-2.641,4.983-6.986,5.505-11.191c0.235-2.13,0.484-4.29,1.297-6.28
					c0.82-1.975,2.161-3.863,4.709-5.144c-0.296,2.282,3.04,11.406,8.272,9.541c-0.033-1.309-0.13-3.508-0.106-6.205
					c0.027-2.69,0.155-5.923,0.657-9.101c0.483-3.21,1.263-6.509,2.45-9.49c0.6-1.475,1.272-2.929,2.102-4.144
					c0.826-1.223,1.76-2.314,2.803-3.222l2.892,1.474c0,0,1.569-1.451,3.138-2.902c0.783-0.743,1.605-1.408,2.218-1.92
					c0.615-0.51,1.025-0.851,1.025-0.851c-1.198,3.802-3.544,10.444-5.856,16.972c-1.186,3.22-2.245,6.689-3.283,9.704
					c-1.024,3.047-1.992,5.725-2.833,7.803c4.489-0.169,2.41,2.126,7.545-0.972c2.894,1.113-1.188,4.803-2.614,5.764
					c0,0,3.152-1.33,6.305-2.661c1.55-0.711,3.172-1.263,4.367-1.718c1.197-0.448,1.996-0.747,1.996-0.747
					c-1.331-2.19,0.494-4.537,2.445-6.799c1.987-2.155,4.109-4.182,3.095-6.018c0,0-0.766,0.678-1.914,1.695
					c-0.568,0.508-1.231,1.101-1.941,1.736c-0.684,0.676-1.414,1.398-2.143,2.12c-2.903,2.889-5.689,5.761-5.689,5.761
					c-1.393-2.183-1.025-6.445,1.084-10.619c0.525-1.043,1.156-2.081,1.887-3.078c0.732-0.994,1.552-1.975,2.505-2.78
					c1.886-1.656,4.138-3.005,6.639-3.782c1.582,0.425,1.879,2.679,1.925,5.013c0.04,2.334-0.164,4.746,0.234,5.481
					c0.142-0.528,0.686-1.218,1.447-1.943c0.759-0.732,1.736-1.494,2.769-2.086c2.048-1.228,4.19-2.1,4.811-1.695
					c0,0-0.79,0.989-1.581,1.978c-0.776,0.989-1.552,1.979-1.552,1.979c2.895-0.096,4.473-2.429,6.377-4.47
					c1.894-2.02,4.182-3.564,7.995-2.413c1.156-0.183,3.181,0.697,4.884,1.43c1.702,0.714,3.051,1.107,2.923-0.294
					c-4.795-4.212-9.953-20.25-8.17-24.735c0.484,0.083,4.093,0.635,7.909,1.39c0.956,0.193,1.922,0.38,2.866,0.611
					c0.949,0.253,1.868,0.514,2.717,0.777c1.698,0.527,3.111,1.063,3.92,1.572c2.361,1.648,1.243,4.29,0.137,6.905
					c-1.121,2.61-2.233,5.191-0.294,6.588c-0.099-1.257,1.731-3.194,2.536-3.853c2.617,0.55-0.349,3.99,4.802,2.35
					c0.199-4.652,10.904-1.255,1.96-4.184c2.546-1.021,3.989-0.991,5.546-0.85c1.561,0.153,3.23,0.339,6.329-0.014
					c-1.115-1.32,0.047-3.872,2.251-6.259c2.196-2.358,5.441-4.7,8.215-5.282c-0.282,1.092,1.019,2.477,1.636,3.102
					c2.818,0.022,5.309,0.146,7.619,0.313c2.31,0.245,4.438,0.59,6.535,0.883c2.097,0.316,4.167,0.554,6.356,0.841
					c2.187,0.335,4.497,0.613,7.092,0.8c0.89,1.006,5.737,2.504,3.456,4.008c1.532-0.543,3.028-1.684,6.211-1.413
					c5.668,3.952-7.081-0.259-2.915,4.222c0.631-2.149,8.496-2.341,13.191-2.771c-0.201-0.877-0.947-1.468-2.027-1.852
					c-1.08-0.381-2.488-0.585-4.031-0.519c-3.081,0.068-6.605,0.709-8.927,1.158c0.243-2.393,2.469-4.611,6.13-6.245
					c1.826-0.798,4.02-1.538,6.46-1.937c2.436-0.377,5.14-0.558,8.013-0.52c2.259,0.157,3.595,0.473,4.333,0.899
					c0.744,0.403,0.912,0.832,0.852,1.219c-0.121,0.774-1.146,1.389-0.329,1.262c4.02,1.183,6.996,1.51,9.427,1.469
					c2.402,0.063,4.26-0.27,6.026-0.547c1.765-0.277,3.436-0.492,5.456-0.188c2.019,0.299,4.333,1.311,7.413,3.211
					c2.203,2.198,1.818,3.409,0.974,4.379c-0.847,0.965-2.156,1.688-1.894,2.766c-3.547-0.682-5.992-1.989-8.181-3.255
					c-2.206-1.197-4.12-2.447-6.479-3.084l5.4,2.907c-2.452,0.212-7.199-0.411-9.492-1.897c0.938,0.914,3.061,1.867,5.899,2.869
					c1.418,0.505,3.02,1.005,4.733,1.552c1.696,0.599,3.505,1.238,5.374,1.899c1.867,0.664,3.813,1.295,5.725,2.034
					c1.897,0.78,3.795,1.575,5.634,2.378c1.829,0.826,3.642,1.558,5.258,2.472c1.626,0.891,3.134,1.775,4.467,2.639
					c2.371,0.166,6.268,1.031,5.004-0.584l-3.798-1.362c-2.576-3.336,8.037,0.785,3.764-2.19c0.694,0.134,1.398,0.27,2.115,0.409
					c0.711,0.154,1.424,0.335,2.154,0.515c1.458,0.366,2.963,0.78,4.497,1.301c1.534,0.522,3.101,1.143,4.673,1.935
					c1.536,0.858,3.082,1.877,4.616,3.102l-0.015,2.924c0.23-0.702-3.575-3.903-5.822-4.316c1.662,0.31,3.778,2.606,6.051,4.614
					c1.134,1.014,2.319,1.944,3.491,2.6c1.152,0.69,2.318,1.065,3.473,0.879c0,0-0.902-1.108-1.804-2.216
					c-0.446-0.566-0.908-1.112-1.266-1.504c-0.353-0.402-0.588-0.669-0.588-0.669c1.356,0.426,2.775,0.914,4.253,1.439
					c1.481,0.52,3.021,1.076,4.564,1.718c1.532,0.657,3.112,1.334,4.554,2.256c1.445,0.918,2.834,1.963,4.108,3.165
					c-1.21-3.789-1.403-0.747-3.84-5.99c0.815,2.637-2.817,0.048-6.208-2.324c-1.699-1.182-3.322-2.34-4.313-2.708
					c-1.004-0.349-1.309,0-0.347,1.719c-1.278-2.763-2.98-4.243-4.868-5.784c-1.895-1.542-3.958-3.166-6.214-6.112
					c-0.219,0.867,1.304,2.631-3.643-0.661c-0.348,0.095-1.042,0.076-1.476,0.051c-0.144-0.115-0.195-0.155-0.318-0.254
					c0.086,0.092,0.15,0.16,0.238,0.252c-0.282-0.008-0.314,0.005,0.09,0.092c1.053,1.032,1.835,1.992,2.014,2.645
					c-1.737,0.196-4.587-0.899-7.483-1.945c-2.915-1.006-5.802-2.122-7.425-2.299c-2.931-1.899,1.72-0.335,0.415-2.053
					c0,0-1.216-0.138-2.432-0.276c-1.232-0.08-2.465-0.161-2.465-0.161c0.387-2.058-7.214-6.925,0.806-4.732l-6.793-3.106
					c-1.8-1.459-4.132-2.733-6.444-3.831c-2.326-1.056-4.643-1.908-6.559-2.053c-3.234-1.604-9.172-0.386-5.765-1.139
					c0,0-0.722-0.144-1.805-0.36c-1.085-0.206-2.519-0.521-3.971-0.758c-2.912-0.416-5.824-0.832-5.824-0.832l0.027-0.602
					c-5.538-1.792-11.592-1.937-17.673-2.744c-6.15-0.481-12.334-1.605-18.78-4.581c-1.975,0.109-3.977,0.235-6.294,0.199
					c-2.322,0.047-4.955-0.097-8.221-0.684l-1.249-2.435c-2.538,0.171-6.342-0.429-9.823-0.899
					c-3.476-0.453-6.615-0.738-7.633,0.631c-1.466-1.607-3.784-2.467-6.577-2.862c-1.396-0.197-2.911-0.277-4.494-0.274
					c-1.581,0.033-3.224,0.234-4.892,0.44c-1.667,0.216-3.356,0.481-5.022,0.754c-1.665,0.279-3.313,0.525-4.876,0.879
					c-3.136,0.643-6.015,1.142-8.337,1.136l0.321,3.443c-0.772,0.084-1.536,0.185-2.297,0.305c-0.754,0.154-1.505,0.325-2.256,0.512
					c-1.502,0.374-3.006,0.814-4.54,1.314c-1.534,0.5-3.1,1.061-4.726,1.677c-1.617,0.654-3.276,1.435-5.035,2.234l1.305,2.952
					c-2.791,2.085-6.986,2.468-11.688,3.104c-2.361,0.276-4.876,0.519-7.422,0.906c-2.519,0.456-5.043,1.128-7.46,2.084
					c0.19-1.427,2.816-2.013,4.839-1.929c-3.58-0.698-6.862-0.171-9.893,0.998c-2.999,1.253-5.708,3.238-8.332,5.225
					c-2.651,1.941-5.068,4.193-7.675,5.818c-2.602,1.643-5.379,2.695-8.544,2.826c-1.848,2.458-3.833,3.047-6.033,3.224
					c0.227-0.132,0.4-0.301,0.52-0.494c-0.276,0.101-0.658,0.3-1.041,0.517c-1.421,0.052-2.9,0.1-4.399,0.343
					c1.482,0.128,2.811,0.134,3.858-0.036c-1.873,1.107-4.437,3.251-6.707,5.666l-3.304-2.526c-0.199,0.18-0.387,0.284-0.587,0.483
					c-3.559,0.47-1.16,2.859,1.902,4.413c-1.042,1.349-1.798,2.859-2.208,4.264c-2.846-1.881-4.309-0.257-5.859,1.382
					c-0.778,0.82-1.581,1.644-2.628,2.046c-1.03,0.425-2.283,0.455-4.031-0.379c0.139,1.98-2.709,4.912-5.171,8.161
					c-2.357,3.38-4.295,7.073-2.544,10.291c-0.7-0.631-1.703-0.366-0.446-1.504c-3.254,1.59-6.387,3.435-7.276,7.053l-4.723-2.744
					c0,0-0.213,2.587-0.37,5.145c-0.108,2.615-0.151,5.211-0.151,5.211c-5.509,1.063-8.354,1.243-7.976-4.93
					c-0.879,3.119-1.597,5.16-2.206,6.691c-0.571,1.563-1.075,2.574-1.545,3.544c-0.915,1.943-1.789,3.709-2.42,9.305l-2.398-2.568
					c-2.079,2.77-1.74,9.853-5.314,9.684c-2.487,0.501-5.142,2.684-8.053,5.818c-0.718,0.79-1.479,1.62-2.2,2.538
					c-0.708,0.926-1.427,1.904-2.157,2.924c-1.46,2.039-2.967,4.242-4.517,6.533c-1.45,2.354-2.95,4.789-4.466,7.248
					c-0.753,1.234-1.588,2.432-2.313,3.691c-0.74,1.251-1.495,2.495-2.267,3.722c-0.772,1.227-1.562,2.438-2.371,3.623
					c-0.815,1.182-1.647,2.34-2.42,3.503c-1.585,2.307-3.264,4.476-5.06,6.436c5.756,0.409,3.643,1.989,1.107,4.054
					c-2.479,2.088-5.507,4.703-1.74,6.579c-2.812,0.137-5.237,2.26-6.083-1.58c-0.195,1.315-0.489,2.501-0.849,3.591
					c-0.341,1.097-0.7,2.116-1.12,3.058c-0.823,1.89-1.777,3.518-2.564,5.103c-0.765,1.591-1.455,3.11-1.497,4.835
					c-0.067,1.715,0.346,3.584,1.567,5.774c-2.834,0.432-3.022-3.171-4.793-2.584c0.296,0.969,1.231,3.791-0.564,4.427
					c-1.789,0.624-1.669-2.04-2.277-3.959c-0.66,2.625-0.692,4.789-0.246,6.582c0.514,1.811,1.479,3.246,2.736,4.419
					c2.515,2.345,6.196,3.655,9.774,4.864c-2.32,2.105-3.52,3.858-3.624,5.637c-0.028,1.795,1.021,3.623,3.125,5.881
					c-2.739,1.292-5.842,3.877-5.558-2.594c-0.274,0.869-0.829,2.63-1.51,4.788c-0.331,1.084-0.678,2.272-1.006,3.504
					c-0.275,1.24-0.518,2.526-0.713,3.794c-0.777,5.077-0.699,9.843,2.385,10.309c-1.624,0.971-0.844,4.954-0.215,5.933
					c-0.246,1.989-0.467,3.525-0.662,4.833c-0.175,1.308-0.259,2.392-0.355,3.47c-0.171,2.158-0.226,4.308-0.039,8.245l1.054-2.167
					c3.658,1.597,3.952,3.176,3.64,5.183c-0.351,1.999-1.5,4.439-0.979,7.555l-0.759-0.151c-1.288,3.65-1.56,5.889-1.563,7.38
					c0.007,1.494,0.359,2.248,0.688,2.994c0.329,0.746,0.633,1.484,0.546,2.959c-0.039,0.738-0.196,1.662-0.459,2.867
					c-0.229,1.202-0.584,2.687-1.11,4.564l4.453-1.313c4.982,0.088,3.919,3.264,2.234,7.535c-1.552,4.224-3.577,9.639-0.983,13.352
					c0,0,0.123-0.216,0.306-0.539c0.191-0.323,0.445-0.754,0.7-1.185c0.511-0.855,1.021-1.71,1.021-1.71
					c1.993,1.886-0.568,5.543-3.661,9.55c-3.08,3.978-6.75,8.332-6.621,10.776c-0.526,1.219-1.808-1.218-2.765-2.484
					c-1.129,6.81,0.489,6.837,2.775,6.18c2.305-0.65,5.372-1.892,7.295,2.276c-1.311,1.274-3.422,1.349-5.067,1.859
					c-0.822,0.257-1.526,0.625-1.949,1.323c-0.426,0.698-0.579,1.728-0.192,3.269c-0.727,1.892,3.238,5.48,7.017,9.628
					c1.982,2.048,3.909,4.252,5.18,6.575c0.636,1.162,1.109,2.356,1.347,3.581c0.274,1.21,0.335,2.443,0.072,3.719
					c1.474-2.704,3.004-5.288,6.441-2.222c0.868,1.369,1.216,3.274,1.421,5.414c0.108,1.067,0.155,2.204,0.25,3.34
					c0.115,1.126,0.237,2.27,0.408,3.39c0.707,4.458,2.092,8.635,6.997,9.238c-0.17,1.034-0.569,1.618-1.081,1.945
					c1.059,0.828,2.274,2.006,3.576,3.307c1.301,1.302,2.679,2.737,4.195,3.999c2.975,2.563,6.013,4.726,8.52,4.79
					c-2.625,3.09-2.308,5.888-0.711,8.536c1.615,2.636,4.521,5.083,7.559,7.167c3.007,2.115,5.822,4.121,7.382,6.019
					c1.553,1.903,1.686,3.878-0.957,6.13c0,0,0.665,0.68,1.663,1.7c1.013,1.006,2.291,2.409,3.692,3.697
					c2.784,2.583,5.567,5.165,5.567,5.165l-1.282,0.693c0.771,0.947,1.521,1.779,2.252,2.508c0.738,0.722,1.497,1.301,2.211,1.818
					c1.44,1.022,2.797,1.699,4.092,2.142c2.601,0.875,4.91,0.867,7.273,0.744c1.062,2.109-1.004,2.013-1.624,2.419
					c4.472,5.541,7.097,8.529,10.401,10.151c1.628,0.841,3.378,1.408,5.54,1.873c1.089,0.222,2.248,0.462,3.607,0.614
					c1.354,0.158,2.848,0.306,4.514,0.464l-1.491,4.168c1.017-0.054,2.317,0.975,3.939,2.613c1.614,1.648,3.683,3.72,6.046,5.997
					c1.189,1.126,2.463,2.287,3.831,3.396c1.402,1.053,2.89,2.071,4.451,2.994c1.561,0.923,3.196,1.75,4.889,2.422
					c1.684,0.687,3.51,1.067,5.329,1.315c-0.337,0.352-0.962,0.934-2.228,0.962c2.045,0.323,4.005,0.981,5.917,1.85
					c0.956,0.435,1.897,0.926,2.828,1.459c0.949,0.497,1.893,1.022,2.825,1.583c3.742,2.204,7.293,5.026,10.891,7.053
					c1.779,1.055,3.525,2.011,5.22,2.761c0.848,0.374,1.682,0.701,2.503,0.955c0.833,0.222,1.65,0.381,2.449,0.464
					c3.196,0.332,6.082-0.553,8.508-3.478c0,0,0.671-0.015,1.676-0.038c0.997,0,2.351-0.1,3.694-0.188
					c2.666-0.179,5.333-0.358,5.333-0.358c-6.117-2.185-5.177-3.524-3.339-4.746c1.85-1.228,4.563-2.346,2.408-4.155
					c2.476,0.276,5.243,2.148,6.697,3.823c0.727,0.826,1.128,1.565,0.951,2.096c-0.172,0.508-0.936,0.848-2.463,0.594l-0.753-0.92
					c-1.01,1.588-0.604,2.797,0.579,3.785c1.183,0.977,3.165,1.61,5.211,2.236c2.05,0.613,4.178,1.169,5.714,1.857
					c1.531,0.709,2.506,1.408,2.185,2.583c12.72,2.12,25.292,3.987,37.812,5.113c3.136,0.212,6.259,0.423,9.368,0.633
					c3.115,0.106,6.221,0.099,9.315,0.116c1.547-0.012,3.093,0.031,4.63-0.049c1.537-0.1,3.071-0.2,4.601-0.299
					c1.529-0.12,3.054-0.239,4.575-0.358c1.521-0.122,3.036-0.261,4.536-0.515c0,0-0.811-1.042-1.622-2.084
					c-0.402-0.518-0.803-1.054-1.104-1.466c-0.299-0.408-0.499-0.68-0.499-0.68s0.13-0.009,0.357-0.024
					c0.227-0.016,0.552-0.031,0.938-0.084c0.774-0.091,1.807-0.212,2.84-0.333c2.065-0.245,4.131-0.49,4.131-0.49
					c2.296,0.726,3.415,3.056-2.567,3.826c1.721,1.042,4.169,0.086,6.145-1.22c1.986-1.269,3.467-3.102,3.475-3.57
					c5.847-0.266,4.99,1.201,3.045,2.724c-1.937,1.515-4.959,3.071-3.167,2.738l4.782-1.375l-1.178-0.275
					c1.798-1.312,2.684-2.446,4.005-3.409c0.66-0.485,1.431-0.911,2.47-1.322c1.033-0.447,2.337-0.862,4.081-1.258
					c4.577-0.3,2.854,1.979,4.628,1.68c0.06,0.296,0.685,0.274,2.699-0.597c0,0,0.652-0.13,1.607-0.416
					c0.959-0.272,2.237-0.636,3.515-0.999c2.555-0.731,5.11-1.462,5.11-1.462s-1.239-0.454-2.478-0.908
					c-1.229-0.468-2.458-0.936-2.458-0.936c2-1.468,4.354-2.151,5.508-2.736c0.578-0.288,0.84-0.592,0.62-0.899
					c-0.22-0.307-0.938-0.662-2.348-1.2c4.138,1.618,13.562-1.193,22.165-5.011c2.186-0.87,4.251-1.966,6.231-2.937
					c1.976-0.978,3.841-1.901,5.504-2.723c3.3-1.691,5.77-3.014,6.907-3.178c1.187-1.235,2.423-2.339,3.721-3.359
					c1.271-1.069,2.585-2.085,3.98-3.045c2.779-1.937,5.891-3.639,9.176-5.797c-1.915,0.637-4.433-1.273,1.347-4.622
					c0.307,1.591,1.188,2.108,2.452,1.968c1.261-0.142,2.926-0.899,4.673-1.985c1.767-1.056,3.705-2.308,5.626-3.302
					c0.959-0.499,1.921-0.926,2.845-1.25c0.905-0.349,1.785-0.577,2.621-0.625c-2.705,0.528,0.926-2.732,4.185-5.832
					c1.658-1.518,3.09-3.164,3.682-4.179c0.583-1.03,0.273-1.485-1.729-0.897c4.458-3.444,1.543,1.295,5.527-0.68
					c1.063-1.354,2.27-2.602,3.44-3.944c1.177-1.334,2.424-2.644,3.727-3.943c1.294-1.308,2.676-2.574,4.035-3.905
					c1.345-1.347,2.71-2.715,4.093-4.101c1.379-1.39,2.831-2.749,4.197-4.217c1.351-1.481,2.707-2.986,4.055-4.52
					c0.668-0.772,1.339-1.547,2.012-2.324l0.998-1.179l0.936-1.236c1.24-1.657,2.457-3.348,3.636-5.071
					c-0.284-0.54-2.62,1.151-1.148-2.194c0,0,0.464-0.332,1.161-0.83c0.347-0.252,0.752-0.546,1.185-0.861
					c0.414-0.332,0.856-0.685,1.298-1.039c1.762-1.438,3.523-2.876,3.523-2.876c0.804-1.451,0.602-2.515,0.804-3.701
					c0.099-0.595,0.308-1.214,0.777-1.943c0.444-0.746,1.156-1.595,2.297-2.637c-0.793,0.493-1.989,1.205-0.983-0.75
					c9.581-13.09,16.348-28.415,21.864-43.972c5.476-15.62,9.637-31.64,13.019-47.675c-1.17,4.301-0.78,1.366-0.288-1.974
					c-0.449,2.152-0.628-0.148-1.04,0.226c0,0,0.06-0.206,0.122-0.573c0.067-0.367,0.163-0.89,0.278-1.519
					c0.226-1.259,0.527-2.938,0.828-4.617c0.292-1.683,0.583-3.367,0.802-4.629c0.119-0.631,0.171-1.162,0.215-1.532
					c0.043-0.371,0.068-0.583,0.068-0.583c-0.368-1.285-0.17-4.932,0.018-8.445c0.129-1.755,0.124-3.482,0.079-4.859
					c-0.039-1.377-0.121-2.402-0.294-2.762l0.09,4.311c-0.42-2.884-0.859-0.89-1.505,1.677c-0.712,2.567-1.572,5.703-2.141,5.243
					c0.122,1.596,0,3.431-0.259,5.439c-0.314,2.003-0.855,4.169-1.368,6.457c-0.252,1.143-0.511,2.318-0.775,3.514
					c-0.118,0.6-0.238,1.205-0.358,1.815c-0.135,0.607-0.27,1.22-0.407,1.836c-0.515,2.469-0.885,5.021-0.905,7.655
					c-0.75,2.18-0.105-2.005-0.688-0.873c0.189,2.7-0.489,5.812-2.224,11.424l-0.008-0.684c-0.246,0.998-0.483,1.961-0.713,2.893
					c-0.254,0.926-0.545,1.809-0.807,2.672c-0.547,1.719-1.063,3.336-1.558,4.891c-0.529,1.544-0.954,3.05-1.553,4.474
					c-0.581,1.428-1.152,2.833-1.729,4.253c-0.589,1.411-1.184,2.838-1.801,4.316c-0.605,1.48-1.392,2.951-2.134,4.538
					c-0.758,1.578-1.559,3.243-2.418,5.031c-0.213,0.447-0.43,0.901-0.651,1.364c-0.243,0.453-0.491,0.914-0.743,1.383
					c-0.502,0.938-1.023,1.911-1.565,2.923l1.596-0.777c-1.848,3.504-2.535,4.099-3.602,5.632c-0.417,4.822,4.928-9.933,4.805-5.469
					c-1.071,0.969-2.366,3.019-3.772,5.577c-0.67,1.295-1.519,2.645-2.317,4.082c-0.802,1.434-1.631,2.919-2.455,4.392
					c-0.411,0.736-0.82,1.469-1.223,2.191c-0.423,0.711-0.874,1.393-1.301,2.063c-0.863,1.336-1.702,2.587-2.499,3.68
					c-1.594,2.186-3.003,3.748-4.186,4.048c-3.442,4.951,2.302-0.654-1.126,4.327l-1.616,0.862l0.06,1.865
					c-0.601,0.792-1.155,1.467-1.717,1.99c-0.566,0.519-1.09,0.918-1.557,1.21c-0.934,0.585-1.64,0.741-1.992,0.584
					c0.655-0.707,1.484-2.271,2.058-3.115c-1.987,1.731-4.11,4.608-5.906,7.217c-0.871,1.324-1.783,2.489-2.494,3.446
					c-0.72,0.95-1.289,1.656-1.644,1.932c0,0,1.049-1.006,2.098-2.011c0.525-0.505,1.049-1.011,1.442-1.39
					c0.4-0.375,0.638-0.647,0.638-0.647c-1.207,1.652-2.535,3.286-3.871,4.963c-0.676,0.832-1.358,1.673-2.046,2.519l-1.043,1.268
					l-1.112,1.225c-3.02,3.236-5.993,6.646-9.277,9.736c-1.593,1.588-3.182,3.174-4.758,4.745c-1.638,1.507-3.244,3.016-4.799,4.531
					c-3.051,3.093-6.188,5.882-8.849,8.856l1.507-0.083c-1.043,1.113-1.94,2.052-2.763,2.817c-0.845,0.739-1.588,1.338-2.266,1.842
					c-1.357,1.009-2.457,1.637-3.604,2.259c-1.158,0.606-2.313,1.275-3.907,2.196c-1.595,0.921-3.552,2.195-6.188,4.21l0.268-0.459
					c-1.611,2.327-4.422,4.549-7.591,6.355c2.227-2.709-6.612,1.265-3.557-2.099c-0.63,0.52-1.201,0.991-1.718,1.418
					c-0.531,0.408-1.009,0.775-1.439,1.105c-0.857,0.669-1.517,1.208-2.033,1.657c-1.033,0.9-1.492,1.443-1.801,1.971
					c-0.309,0.529-0.469,1.043-0.908,1.901c-0.441,0.857-1.142,2.09-2.647,3.91l-2.641-0.712c-0.955,1.366-1.394,2.28-2.318,3.272
					c-0.931,0.979-2.307,2.125-5.305,3.646c2.186-1.825,0.895-2.025-0.334-2.345c-1.232-0.312-2.399-0.749-0.057-2.863
					c-3.624,0.404-6.483,1.287-8.891,2.393c-2.433,1.042-4.453,2.208-6.262,3.317c-1.822,1.069-3.418,2.122-5.134,2.466
					c-1.705,0.37-3.458,0.227-5.474-0.866c-2.121,3.579,0.954,3.474,4.237,2.68c3.302-0.711,6.624-2.412,5.167-1.214
					c1.722,0.316,0.853,1.718-1.011,3.211c-1.89,1.409-4.806,2.815-6.998,3.24c-1.081,0.32-2.218,0.198-3.471-0.12
					c-1.253-0.316-2.655-0.928-4.227-1.443c-1.577-0.527-3.341-1.012-5.367-1.2c-1.013-0.094-2.092-0.113-3.248-0.023
					c-1.17,0.037-2.42,0.169-3.762,0.445c1.078-0.181,1.044-0.633,2.117-0.813c-2.194-0.349-4.032,0.521-6.03,1.32
					c-0.998,0.398-2.033,0.776-3.158,0.96c-1.135,0.132-2.363,0.055-3.721-0.398c-2.125,4.089-6.471,0.695-6.523,5.609l9.867-2.631
					c-2.724,1.031-5.183,3.139-8.253,4.89c-1.526,0.915-3.233,1.538-5.166,1.946c-1.934,0.389-4.108,0.478-6.58,0.043
					c0.644-1.093,3.327-2.714,5.165-3.635c-1.479-0.579-2.773-0.206-4.091,0.171c-1.315,0.379-2.653,0.774-4.167,0.058
					c0.086-1.285,0.893-1.968,2.123-2.492c1.232-0.518,2.901-0.774,4.743-1.008c1.84-0.237,3.854-0.437,5.747-0.869
					c1.879-0.516,3.641-1.229,4.98-2.336c-1.627-0.822-4.289,0.496-6.335,1.168c-2.048,0.665-3.401,0.86-2.253-1.906
					c-1.701,3.531-4.445,3.595-7.524,3.449c-3.113-0.272-6.536-0.829-10.073,2.05l0.308-3.11c-1.12,0.568-3.469,2.007-5.627,1.908
					l3.691-3.993c-2.859,1.663-5.761,0.882-8.559-0.137c-2.811-0.941-5.517-2.459-8.321-1.654c2.915,0.185,4.537,0.535,5.41,0.991
					c0.873,0.456,0.994,0.979,0.9,1.621c-0.181,1.259-1.249,2.83,1.297,4.003c-1.85,0.563-3.382,0.7-4.666,0.709
					c-1.284-0.002-2.32-0.194-3.19-0.526c-1.74-0.662-2.814-1.877-3.918-3.193c-1.106-1.286-2.235-2.799-4.081-3.961
					c-1.847-1.183-4.404-1.984-8.404-2.148c2.159-0.122,7.942,3.013,4.417,4.163c-1.51-0.542-3.256-1.17-4.803-2.087
					c-1.549-0.91-2.918-1.93-3.726-2.975c-5.258-0.548-5.002,0.408-3.99,1.647c1.006,1.243,2.798,2.771,0.377,3.451
					c-1.533-2.362-2.878-2.135-4.484-1.359c-1.605,0.806-3.488,2.283-5.977,2.475l0.62-3.511c-1.454-0.601-2.61-0.947-3.549-1.103
					c-0.93-0.197-1.642-0.206-2.211-0.07c-1.138,0.268-1.699,1.079-2.222,1.886c-1.037,1.613-1.967,3.211-7.12,0.446l5.78-3.733
					c0,0-1.472-0.052-2.944-0.104c-0.74-0.025-1.479-0.049-2.034-0.068c-0.549-0.046-0.915-0.076-0.915-0.076l2.179-3.696
					c-3.337,0.562-5.454,0.472-7.397-0.104c-0.972-0.293-1.903-0.708-2.93-1.237c-1.026-0.53-2.115-1.28-3.448-2.088
					c0.514,3.022-2.867,6.218-8.169,4.452c-2.731-3.496,3.158-2.564-4.192-5.067c1.245-0.779,2.565-1.685,3.793-1.817
					c0.615-0.068,1.206,0.065,1.765,0.49c0.569,0.399,1.102,1.101,1.595,2.217c0.738-1.05,2.387-1.655,3.106-2.686
					c-2.843-3.722-8.85-4.327-11.404-5.359c0.908,0.554,1.981,1.249,2.373,2.018c0,0-0.754,0.037-1.886,0.092
					c-1.132,0.046-2.667,0.15-4.19,0.185c-3.058,0.016-6.116,0.031-6.116,0.031c-0.975-2.109,0.791-2.576,2.488-3.03
					c-1.091-0.3-2.173-0.21-3.38-0.188c-1.203,0.017-2.551,0.005-4.072-0.67c2.17-2.491,3.438-5.499,8.134-4.852
					c0,0-0.667-0.086-1.667-0.216c-1.004-0.126-2.352-0.289-3.663-0.548c-2.67-0.462-5.341-0.925-5.341-0.925
					c0.021-0.794-0.691-2.297-1.171-3.647c-0.493-1.333-0.7-2.621,0.139-2.781c-1.908-2.36-5.597-2.774-9.531-3.467
					c-1.922-0.412-3.912-0.868-5.727-1.628c-1.807-0.771-3.482-1.783-4.595-3.507c-0.684,0.3-1.671,0.335-3.248-0.249
					c-1.323-1.237-2.476-2.611-3.602-3.992c-1.081-1.442-2.122-2.907-3.3-4.246c-1.171-1.35-2.497-2.553-4.081-3.588
					c-1.549-1.078-3.399-1.932-5.749-2.465c0,0,0.152-1.968,0.304-3.936c0.149-1.941,0.406-3.941,0.406-3.941
					c-2.743-1.772-2.998,0.782-3.654,3.075c-0.669,2.287-1.736,4.306-6.556,1.206c-3.537-2.083-3.136-3.555-1.896-4.917
					c1.224-1.35,3.196-2.572,2.915-4.194c-2.41-0.301-5.942-0.586-9.066-1.935c-3.082-1.369-5.603-3.956-5.942-8.377
					C144.109,534.04,144.582,536.084,146.367,537.484z M103.369,468.013c0.705,0.602,1.999,1.406,2.845,2.3
					c0.902,0.876,1.349,1.85,0.298,2.873c-2.774,0.088-3.714-0.442-3.899-1.363C102.451,470.893,103.086,469.555,103.369,468.013z
					 M87.562,341.567c1.115,1.584,0.025,3.269-2.15,5.013C85.415,344.947,85.938,343.203,87.562,341.567z M383.416,167.082
					c-0.086,0.008-0.146,0.015-0.221,0.037C379.64,164.79,380.89,165.652,383.416,167.082z M390.966,171.216
					c0.897,0.044,0.958-0.27,0.74-0.71c-0.755,0.3-2.513-0.437-4.464-1.436C387.599,169.857,388.455,170.689,390.966,171.216z
					 M362.203,635.089l-1.776-0.289C363.849,633.069,363.012,634.039,362.203,635.089z"/>
				<path d="M90.511,357.357c-0.836,0.313-1.694,0.285-2.557,0.236C88.596,358.376,89.468,358.541,90.511,357.357z"/>
				<path d="M184.953,570.363c0.047,0.078,0.12,0.117,0.171,0.189c0.249-0.122,0.45-0.285,0.622-0.465L184.953,570.363z"/>
				<path d="M265.719,181.616c-1.626-0.134-2.602-0.544-3.295-1.034C262.489,181.388,263.321,181.908,265.719,181.616z"/>
				<path d="M432.133,189.658c0,0-0.296-0.171-0.741-0.428c-0.441-0.263-1.038-0.598-1.653-0.902
					c-1.219-0.626-2.438-1.252-2.438-1.252c2.279,1.345,2.874,2.188,3.793,3.234C431.231,189.857,430.716,188.694,432.133,189.658z"
					/>
				<path d="M461.824,227.097c0.682,0.384,1.183,1.098,1.86,1.475l0.347-0.671C461.65,225.674,459.607,224.553,461.824,227.097z"/>
				<path d="M432.872,197.851c-0.255,0.785,0.383,1.523,1.49,2.292c0.554,0.385,1.226,0.778,1.962,1.191
					c0.717,0.442,1.488,0.918,2.28,1.406c-0.183-0.128-0.361-0.244-0.529-0.391c1.053-0.56,0.68-1.285-0.405-2.102
					C436.576,199.445,434.708,198.658,432.872,197.851z"/>
				<path d="M439.327,203.211c0.963,0.623,1.927,1.289,2.787,2.014C442.959,204.8,441.095,204.248,439.327,203.211z"/>
				<path d="M401.271,174.512c1.432,1.238,1.968-1.633,2.588-0.486c1.387-0.595-1.626-1.346-3.792-1.479
					c-1.077-0.082-1.969,0.05-1.98,0.348C398.08,173.181,398.93,173.678,401.271,174.512z"/>
				<polygon points="432.523,203.836 432.488,201.503 429.904,201.705 				"/>
				<path d="M408.289,187.988l4.937,3.229c0.088-0.356,0.848-0.197,1.737,0.087C411.786,189.574,408.454,187.347,408.289,187.988z"
					/>
				<path d="M414.962,191.304c1.642,0.929,3.19,1.834,4.271,2.057C418.334,192.877,416.424,191.782,414.962,191.304z"/>
				<path d="M425.493,200.041c0,0-0.308-0.321-0.616-0.641c-0.306-0.325-0.622-0.635-0.622-0.635l-3.495-2.179
					c0,0,1.193,0.85,2.387,1.701C424.354,199.11,425.493,200.041,425.493,200.041z"/>
				<path d="M348.85,166.85l-6.457-0.404c-0.793,0.813,0.823,1.688,3.225,1.742C347.236,167.82,349.648,167.904,348.85,166.85z"/>
				<path d="M365.851,178.192c-1.489-0.944-1.449-1.523-2.155-2.589l-1.006,3.012L365.851,178.192z"/>
				<path d="M347.959,174.956c-0.811,0.789-9.335,1.259-1.59,2.227c0.393-0.401,2.158-0.571,3.141-0.799
					c0.488-0.102,0.784-0.238,0.618-0.468C349.964,175.676,349.336,175.353,347.959,174.956z"/>
				<polygon points="254.165,172.191 255.718,171.77 254.039,164.967 				"/>
				<path d="M188.159,221.164c6.679-2.238-1.372-5.203,5.112-6.635c0.209-1.233-1.165-1.03-2.457-0.673
					c-1.304,0.332-2.601,0.691-2.341-0.489C186.034,217.474,183.623,217.737,188.159,221.164z"/>
				<path d="M188.473,213.367c0.395-0.654,0.789-1.391,1.156-2.272C188.865,212.221,188.59,212.878,188.473,213.367z"/>
				<path d="M539.235,411.518c0,0,0.03-0.306,0.074-0.765c0.056-0.458,0.084-1.072,0.109-1.686c0.053-1.228,0.106-2.455,0.106-2.455
					l-0.38,3.157c0,0,0.043,0.438,0.054,0.874C539.216,411.081,539.235,411.518,539.235,411.518z"/>
				<path d="M538.441,402.074l0.7-1.143l-0.619-2.944C538.547,399.091,538.603,401.237,538.441,402.074z"/>
				<path d="M111.7,452.887l-1.516,0.101c-1.374,1.064-1.225,2.053-0.941,4.036L111.7,452.887z"/>
				<path d="M130.117,506.989l-0.42-0.912c0,0-0.911,1.122-1.821,2.245c-0.903,1.132-1.806,2.265-1.806,2.265L130.117,506.989z"/>
				<path d="M164.533,540.689c-0.591-0.776-1.527-1.321-2.392-1.946c-0.868-0.621-1.741-1.245-2.308-2.05
					C163.239,539.206,160.348,545.728,164.533,540.689z"/>
			</g>
		</g>
	</g>
</g>
</svg>
